<?xml version="1.0" encoding="UTF-8"?>
<svg xmlns="http://www.w3.org/2000/svg" width="26" height="26" viewBox="0 0 26 26" fill="none"> <path d="M19.7568 6.41367C18.4135 4.13773 16.5065 2.24627 14.2196 0.92168L13.8127 0.686359L13.4058 0.92168C11.08 2.26394 9.14877 4.19508 7.80635 6.5208C6.46393 8.84651 5.75773 11.4848 5.75879 14.1701C5.75879 14.345 5.76184 14.5227 5.76778 14.6982C5.84862 17.0776 6.75857 19.0798 8.39927 20.4882C9.65478 21.566 11.2653 22.224 13.0004 22.381V25.1875H14.6254V12.1875H13.0002V20.7456C10.2548 20.4275 7.52227 18.4881 7.39171 14.643C7.38633 14.4858 7.38359 14.3267 7.38359 14.1701C7.38842 11.8514 7.9806 9.57173 9.10484 7.54381C10.2291 5.51589 11.8488 3.80584 13.8127 2.57324C15.7766 3.80586 17.3962 5.51593 18.5205 7.54384C19.6447 9.57176 20.2368 11.8514 20.2416 14.1701C20.2416 14.3267 20.2389 14.4858 20.2335 14.643C20.1291 17.719 18.3593 19.5753 16.25 20.3578V22.0776C17.3446 21.7673 18.3596 21.2252 19.2262 20.4881C20.8668 19.0797 21.7768 17.0775 21.8576 14.6982C21.8636 14.5227 21.8666 14.345 21.8666 14.1701C21.8681 11.4427 21.1396 8.76455 19.7568 6.41367V6.41367Z" fill="white"/> </svg>