<?xml version="1.0" encoding="UTF-8"?>
<svg xmlns="http://www.w3.org/2000/svg" width="28" height="28" viewBox="0 0 28 28" fill="none"> <path d="M14.6002 3.0968C14.4349 2.94949 14.2211 2.8681 13.9996 2.8681C13.7782 2.8681 13.5644 2.94949 13.399 3.0968C12.2911 4.0805 11.4771 5.35168 11.0471 6.76955C10.6172 8.18741 10.5881 9.69661 10.963 11.13C9.18632 10.0814 7.12769 9.61078 5.07184 9.7832C4.94978 9.79324 4.83092 9.82733 4.72209 9.88352C4.61327 9.9397 4.51665 10.0169 4.43778 10.1106C4.35892 10.2043 4.29938 10.3126 4.26259 10.4295C4.2258 10.5463 4.2125 10.6692 4.22344 10.7912C4.39704 12.7022 5.29304 14.5992 6.53484 16.0692C6.04749 16.0381 5.55851 16.0428 5.07184 16.0832C4.94978 16.0932 4.83092 16.1273 4.72209 16.1835C4.61327 16.2397 4.51665 16.3169 4.43778 16.4106C4.35892 16.5043 4.29938 16.6126 4.26259 16.7295C4.2258 16.8463 4.2125 16.9692 4.22344 17.0912C4.42466 19.3067 5.44694 21.367 7.08949 22.8673C8.73205 24.3677 10.8762 25.1997 13.1008 25.2H14.8984C17.1229 25.1997 19.2668 24.3679 20.9093 22.8678C22.5519 21.3678 23.5743 19.3079 23.7758 17.0926C23.787 16.9705 23.7738 16.8474 23.7371 16.7304C23.7004 16.6135 23.6409 16.5049 23.562 16.4111C23.4831 16.3172 23.3865 16.2399 23.2775 16.1836C23.1686 16.1274 23.0496 16.0932 22.9274 16.0832C22.4408 16.0428 21.9518 16.0381 21.4644 16.0692C22.7062 14.5992 23.6022 12.7022 23.7758 10.7912C23.7866 10.6693 23.7732 10.5464 23.7363 10.4296C23.6994 10.3129 23.6399 10.2046 23.561 10.1109C23.4822 10.0173 23.3857 9.94012 23.2769 9.88387C23.1682 9.82763 23.0494 9.79342 22.9274 9.7832C20.8716 9.61078 18.813 10.0814 17.0362 11.13C17.4112 9.69661 17.3821 8.18741 16.9522 6.76955C16.5222 5.35168 15.7082 4.0805 14.6002 3.0968V3.0968ZM13.9996 20.1992C12.8024 18.5381 11.1244 17.2842 9.19204 16.6068C9.17622 16.594 9.15988 16.5818 9.14304 16.5704C7.46304 15.4266 6.04064 13.3 5.68084 11.1524C7.78757 11.0981 9.84046 11.8218 11.4474 13.1852C12.5114 14.0854 12.8026 14.9072 13.0658 15.6464C13.161 15.9124 13.252 16.1686 13.3738 16.4122C13.432 16.5283 13.5214 16.6259 13.6319 16.6942C13.7424 16.7624 13.8698 16.7985 13.9996 16.7985C14.1295 16.7985 14.2568 16.7624 14.3674 16.6942C14.4779 16.6259 14.5672 16.5283 14.6254 16.4122C14.7486 16.1686 14.8396 15.9124 14.9334 15.645C15.1966 14.9086 15.4892 14.0854 16.5518 13.1852C18.159 11.821 20.2125 11.0968 22.3198 11.151C21.9586 13.3 20.5376 15.4266 18.8562 16.5704C18.8394 16.5818 18.823 16.5939 18.8072 16.6068C16.8749 17.2841 15.1968 18.538 13.9996 20.1992V20.1992ZM13.1008 23.8C11.31 23.7997 9.57821 23.1599 8.21732 21.9959C6.85643 20.8318 5.95593 19.2201 5.67804 17.451C7.24129 17.4113 8.78568 17.7994 10.1444 18.5734C11.5032 19.3474 12.6247 20.4779 13.3878 21.8428C13.4485 21.9519 13.5372 22.0427 13.6447 22.106C13.7523 22.1693 13.8748 22.2026 13.9996 22.2026C14.1244 22.2026 14.247 22.1693 14.3545 22.106C14.4621 22.0427 14.5508 21.9519 14.6114 21.8428C15.3746 20.4779 16.4961 19.3474 17.8548 18.5734C19.2136 17.7994 20.758 17.4113 22.3212 17.451C22.0433 19.2201 21.1428 20.8318 19.782 21.9959C18.4211 23.1599 16.6892 23.7997 14.8984 23.8H13.1008ZM13.9996 13.7424C12.7843 12.5025 12.1036 10.8355 12.1036 9.0993C12.1036 7.36311 12.7843 5.69612 13.9996 4.4562C15.2149 5.69612 15.8956 7.36311 15.8956 9.0993C15.8956 10.8355 15.2149 12.5025 13.9996 13.7424V13.7424Z" fill="white"/> </svg>