<?xml version="1.0" encoding="UTF-8"?>
<svg xmlns="http://www.w3.org/2000/svg" width="187" height="187" viewBox="0 0 187 187" fill="none"> <path d="M177.654 97.7338L184.775 98.2567L184.479 102.286L183.961 102.248L184.214 98.7971L181.621 98.6067L181.527 99.8832C181.484 100.475 181.375 100.948 181.202 101.303C181.035 101.665 180.799 101.922 180.494 102.073C180.195 102.225 179.827 102.285 179.388 102.253C178.942 102.22 178.573 102.106 178.28 101.911C177.987 101.716 177.773 101.436 177.64 101.072C177.513 100.708 177.469 100.254 177.509 99.7085L177.654 97.7338ZM178.024 99.6661C177.975 100.324 178.063 100.809 178.288 101.119C178.512 101.437 178.893 101.615 179.432 101.655C179.804 101.682 180.102 101.63 180.326 101.5C180.549 101.369 180.712 101.157 180.813 100.864C180.921 100.577 180.992 100.212 181.024 99.7661L181.112 98.5693L178.12 98.3496L178.024 99.6661Z" fill="#A9A9A9"/> <path d="M178.077 117.399C177.546 117.271 177.08 117.085 176.678 116.844C176.276 116.609 175.944 116.323 175.683 115.985C175.428 115.649 175.262 115.262 175.183 114.824C175.108 114.395 175.134 113.921 175.26 113.402C175.387 112.878 175.586 112.442 175.855 112.096C176.124 111.75 176.449 111.485 176.829 111.303C177.21 111.121 177.633 111.018 178.098 110.994C178.57 110.971 179.072 111.024 179.603 111.153C180.309 111.324 180.899 111.591 181.374 111.953C181.847 112.322 182.176 112.776 182.361 113.314C182.551 113.861 182.562 114.481 182.393 115.174C182.231 115.842 181.95 116.367 181.548 116.75C181.151 117.14 180.658 117.391 180.069 117.502C179.479 117.613 178.816 117.579 178.077 117.399ZM179.459 111.746C178.837 111.595 178.274 111.554 177.77 111.624C177.266 111.694 176.839 111.885 176.489 112.198C176.138 112.511 175.893 112.956 175.753 113.532C175.612 114.116 175.623 114.622 175.786 115.053C175.954 115.492 176.246 115.854 176.664 116.141C177.08 116.434 177.599 116.656 178.221 116.807C179.186 117.041 179.989 117.013 180.629 116.722C181.267 116.438 181.687 115.881 181.888 115.052C182.029 114.469 182.02 113.955 181.86 113.512C181.699 113.075 181.411 112.707 180.996 112.407C180.581 112.114 180.068 111.894 179.459 111.746Z" fill="#A9A9A9"/> <path d="M169.882 129.121L170.108 128.597L176.186 131.222L177.189 128.899C176.89 128.734 176.574 128.55 176.24 128.347C175.903 128.151 175.565 127.951 175.225 127.746C174.885 127.541 174.553 127.336 174.228 127.13C173.906 126.933 173.61 126.744 173.34 126.562C172.958 126.302 172.635 126.05 172.371 125.805C172.106 125.56 171.925 125.308 171.826 125.048C171.732 124.796 171.75 124.517 171.883 124.211C171.927 124.107 171.979 124.013 172.037 123.929C172.092 123.852 172.148 123.781 172.204 123.718L172.672 123.921C172.613 123.975 172.557 124.038 172.504 124.109C172.451 124.181 172.404 124.266 172.361 124.364C172.272 124.572 172.28 124.771 172.386 124.962C172.492 125.154 172.661 125.343 172.893 125.53C173.128 125.726 173.394 125.924 173.692 126.125C173.974 126.313 174.281 126.51 174.612 126.719C174.949 126.93 175.3 127.143 175.665 127.358C176.033 127.583 176.402 127.804 176.773 128.022C177.14 128.246 177.502 128.46 177.857 128.664L176.438 131.951L169.882 129.121Z" fill="#A9A9A9"/> <path d="M165.655 137.006L171.679 140.839L171.368 141.328L168.736 139.654L167.973 140.852C167.666 141.335 167.351 141.692 167.031 141.923C166.712 142.163 166.381 142.28 166.037 142.274C165.693 142.269 165.338 142.15 164.972 141.917C164.601 141.681 164.334 141.405 164.172 141.088C164.01 140.772 163.958 140.419 164.017 140.029C164.071 139.645 164.24 139.231 164.523 138.786L165.655 137.006ZM164.996 138.993C164.66 139.521 164.511 139.984 164.551 140.381C164.591 140.778 164.839 141.121 165.294 141.411C165.609 141.611 165.9 141.701 166.166 141.681C166.428 141.666 166.673 141.553 166.902 141.343C167.133 141.142 167.361 140.865 167.586 140.51L168.305 139.38L165.774 137.769L164.996 138.993Z" fill="#A9A9A9"/> <path d="M152.994 153.241L158.48 147.254L163.744 152.078L163.352 152.506L158.471 148.033L156.316 150.385L161.197 154.857L160.812 155.278L155.931 150.805L153.769 153.164L158.65 157.637L158.258 158.065L152.994 153.241Z" fill="#A9A9A9"/> <path d="M143.212 165.969C142.886 165.53 142.645 165.09 142.491 164.648C142.331 164.21 142.259 163.778 142.274 163.351C142.293 162.93 142.411 162.526 142.63 162.139C142.847 161.761 143.17 161.413 143.598 161.094C144.031 160.772 144.462 160.563 144.89 160.469C145.319 160.374 145.737 160.379 146.146 160.481C146.555 160.584 146.946 160.775 147.32 161.054C147.698 161.338 148.05 161.699 148.376 162.138C148.81 162.721 149.094 163.303 149.228 163.885C149.356 164.471 149.32 165.03 149.118 165.562C148.914 166.104 148.527 166.588 147.954 167.014C147.403 167.424 146.851 167.648 146.298 167.686C145.743 167.733 145.203 167.611 144.679 167.32C144.155 167.029 143.666 166.578 143.212 165.969ZM147.887 162.502C147.505 161.988 147.097 161.598 146.665 161.329C146.233 161.061 145.782 160.935 145.312 160.952C144.843 160.969 144.37 161.155 143.894 161.509C143.413 161.867 143.098 162.264 142.948 162.7C142.797 163.145 142.791 163.611 142.929 164.098C143.062 164.589 143.319 165.091 143.701 165.605C144.294 166.401 144.93 166.892 145.608 167.078C146.281 167.267 146.959 167.106 147.644 166.597C148.125 166.239 148.446 165.838 148.606 165.394C148.761 164.955 148.775 164.488 148.647 163.993C148.514 163.501 148.261 163.005 147.887 162.502Z" fill="#A9A9A9"/> <path d="M133.879 177.897C133.755 177.608 133.707 177.341 133.733 177.097C133.753 176.855 133.846 176.633 134.012 176.429C134.182 176.232 134.424 176.054 134.739 175.895C135.055 175.735 135.342 175.646 135.602 175.628C135.858 175.618 136.085 175.675 136.282 175.8C136.476 175.933 136.657 176.137 136.825 176.411L136.343 176.654C136.151 176.347 135.948 176.166 135.733 176.11C135.512 176.057 135.241 176.112 134.92 176.274C134.616 176.427 134.414 176.611 134.313 176.826C134.213 177.041 134.232 177.315 134.37 177.649L133.879 177.897ZM136.817 174.018L136.335 174.261L134.146 169.922C134.092 169.815 134.035 169.702 133.975 169.582C133.915 169.463 133.86 169.346 133.808 169.23C133.751 169.117 133.702 169.011 133.66 168.913C133.618 168.815 133.58 168.725 133.547 168.645L133.52 168.658L132.638 176.125L132.094 176.4L128.878 170.025L129.37 169.777L131.522 174.045C131.585 174.17 131.65 174.298 131.716 174.429C131.776 174.563 131.833 174.691 131.887 174.813C131.941 174.935 131.994 175.047 132.045 175.148C132.09 175.252 132.127 175.342 132.157 175.416L132.184 175.403L133.057 167.918L133.602 167.643L136.817 174.018Z" fill="#A9A9A9"/> <path d="M110.099 183.397C109.515 183.504 109.026 183.533 108.63 183.483C108.235 183.433 107.925 183.297 107.701 183.073C107.472 182.858 107.321 182.55 107.248 182.15C107.199 181.881 107.206 181.625 107.27 181.383C107.328 181.142 107.445 180.928 107.62 180.74C107.797 180.558 108.028 180.414 108.314 180.308L108.309 180.279C107.957 180.282 107.654 180.236 107.399 180.14C107.138 180.045 106.926 179.891 106.765 179.676C106.605 179.468 106.495 179.2 106.435 178.873C106.352 178.42 106.388 178.024 106.543 177.684C106.692 177.351 106.941 177.079 107.288 176.866C107.63 176.662 108.047 176.514 108.539 176.424L110.753 176.02L112.037 183.043L110.099 183.397ZM109.394 180.324C108.745 180.443 108.3 180.639 108.059 180.914C107.818 181.188 107.737 181.545 107.817 181.985C107.9 182.437 108.114 182.734 108.458 182.874C108.802 183.014 109.315 183.022 109.997 182.898L111.374 182.646L110.9 180.049L109.394 180.324ZM110.81 179.557L110.272 176.616L108.668 176.909C108.026 177.026 107.571 177.245 107.304 177.565C107.037 177.885 106.95 178.294 107.041 178.792C107.101 179.12 107.221 179.373 107.403 179.55C107.585 179.733 107.833 179.847 108.146 179.891C108.459 179.936 108.842 179.917 109.295 179.834L110.81 179.557Z" fill="#A9A9A9"/> <path d="M97.1708 177.741L97.2535 184.88L96.6735 184.887L96.6374 181.767L95.3375 181.782C94.7642 181.789 94.2967 181.721 93.935 181.578C93.5667 181.443 93.2942 181.229 93.1175 180.938C92.9341 180.647 92.8399 180.284 92.8349 179.851C92.8298 179.411 92.9122 179.037 93.0819 178.728C93.2517 178.419 93.5123 178.183 93.8638 178.019C94.2152 177.855 94.6543 177.77 95.1809 177.764L97.1708 177.741ZM95.2667 178.263C94.6401 178.27 94.1749 178.399 93.8711 178.649C93.5674 178.906 93.4186 179.304 93.4249 179.844C93.4292 180.218 93.5092 180.507 93.6649 180.711C93.8141 180.923 94.0358 181.071 94.3301 181.154C94.6244 181.237 94.9849 181.276 95.4115 181.271L96.6315 181.257L96.5966 178.247L95.2667 178.263ZM91.7811 177.803L91.8638 184.943L91.2839 184.949L91.2012 177.81L91.7811 177.803Z" fill="#A9A9A9"/> <path d="M81.6114 176.985L80.462 184.032L76.4747 183.381L76.5584 182.868L79.9733 183.425L80.3918 180.859L79.1285 180.653C78.5429 180.558 78.081 180.408 77.7427 180.204C77.3968 180.006 77.1619 179.748 77.0381 179.431C76.9131 179.12 76.8861 178.747 76.9569 178.313C77.0288 177.872 77.175 177.514 77.3954 177.24C77.6159 176.965 77.9134 176.777 78.2878 176.676C78.6612 176.581 79.1177 176.578 79.6573 176.666L81.6114 176.985ZM79.6541 177.182C79.0027 177.076 78.5124 177.121 78.1832 177.317C77.8474 177.512 77.636 177.877 77.5491 178.41C77.489 178.778 77.5142 179.079 77.6246 179.313C77.735 179.548 77.9318 179.728 78.215 179.856C78.4906 179.988 78.8488 180.091 79.2896 180.163L80.4739 180.356L80.9569 177.395L79.6541 177.182Z" fill="#A9A9A9"/> <path d="M62.0984 175.695C62.2731 175.177 62.498 174.728 62.7734 174.35C63.0424 173.969 63.3565 173.664 63.7157 173.433C64.0727 173.208 64.4727 173.076 64.9155 173.035C65.3499 172.999 65.8199 173.066 66.3252 173.236C66.837 173.409 67.2536 173.644 67.5751 173.942C67.8967 174.241 68.1316 174.587 68.28 174.982C68.4283 175.377 68.4943 175.807 68.478 176.273C68.4595 176.745 68.363 177.24 68.1884 177.758C67.9563 178.447 67.6392 179.012 67.2371 179.453C66.8288 179.892 66.3482 180.181 65.7954 180.318C65.2341 180.459 64.6155 180.416 63.9395 180.188C63.2888 179.969 62.7903 179.643 62.4439 179.209C62.0891 178.78 61.8821 178.267 61.823 177.67C61.7639 177.073 61.8557 176.415 62.0984 175.695ZM67.6103 177.563C67.8148 176.957 67.9041 176.399 67.8785 175.891C67.8528 175.383 67.6993 174.941 67.4181 174.565C67.1368 174.189 66.7151 173.906 66.1529 173.716C65.5843 173.525 65.0784 173.491 64.6353 173.616C64.1837 173.745 63.797 174.005 63.4753 174.397C63.1472 174.785 62.8809 175.283 62.6765 175.89C62.3592 176.831 62.3175 177.633 62.5514 178.296C62.7789 178.956 63.297 179.423 64.1056 179.695C64.6742 179.887 65.1864 179.923 65.6422 179.802C66.0916 179.679 66.4836 179.424 66.818 179.037C67.146 178.648 67.4102 178.157 67.6103 177.563Z" fill="#A9A9A9"/> <path d="M50.4597 174.236C49.7006 173.832 49.2111 173.383 48.9912 172.888C48.7713 172.393 48.8211 171.846 49.1408 171.245C49.3006 170.945 49.4947 170.701 49.7232 170.513C49.9459 170.322 50.2026 170.194 50.4936 170.13C50.7755 170.069 51.093 170.076 51.4459 170.15C51.793 170.222 52.1726 170.367 52.5845 170.587L53.5024 171.075L54.8749 168.498L55.3868 168.771L52.0309 175.073L50.4597 174.236ZM50.7524 173.814L51.7586 174.35L53.2674 171.517L52.4024 171.056C51.9964 170.84 51.6257 170.699 51.2904 170.634C50.946 170.571 50.6439 170.607 50.384 170.74C50.115 170.877 49.8819 171.13 49.6845 171.501C49.4338 171.972 49.3946 172.393 49.567 172.764C49.7394 173.135 50.1345 173.485 50.7524 173.814Z" fill="#A9A9A9"/> <path d="M36.6158 155.852L31.6597 160.991L27.9381 157.402L32.8943 152.263L33.3046 152.659L28.7094 157.424L31.6031 160.214L36.1983 155.449L36.6158 155.852Z" fill="#A9A9A9"/> <path d="M20.4324 142.627C20.8733 142.303 21.3153 142.066 21.7583 141.915C22.1974 141.759 22.6302 141.689 23.0567 141.707C23.4778 141.729 23.8811 141.851 24.2667 142.073C24.643 142.293 24.9888 142.618 25.3041 143.048C25.6234 143.484 25.8286 143.916 25.9199 144.345C26.0112 144.774 26.004 145.193 25.8982 145.601C25.7924 146.009 25.5987 146.399 25.3173 146.77C25.0305 147.146 24.6667 147.495 24.2258 147.819C23.6397 148.248 23.0553 148.528 22.4725 148.657C21.8858 148.782 21.3268 148.741 20.7957 148.535C20.2553 148.328 19.7742 147.936 19.3525 147.361C18.9465 146.807 18.7266 146.254 18.6927 145.7C18.6494 145.145 18.7753 144.606 19.0704 144.084C19.3655 143.562 19.8195 143.076 20.4324 142.627ZM23.8651 147.327C24.3813 146.948 24.7751 146.544 25.0465 146.113C25.3179 145.683 25.4468 145.233 25.4333 144.764C25.4198 144.294 25.2376 143.82 24.8869 143.342C24.5322 142.858 24.1376 142.539 23.7033 142.386C23.2596 142.232 22.7937 142.223 22.3055 142.357C21.8134 142.486 21.3092 142.74 20.7931 143.119C19.9919 143.706 19.4963 144.338 19.3062 145.014C19.1122 145.686 19.2674 146.365 19.7719 147.054C20.1266 147.538 20.5251 147.861 20.9673 148.025C21.4056 148.183 21.8728 148.2 22.3688 148.076C22.861 147.947 23.3597 147.697 23.8651 147.327Z" fill="#A9A9A9"/> <path d="M18.0458 131.374L18.3089 131.891L12.4092 134.894L13.4525 136.943L12.989 137.179L10.6393 132.563L11.1028 132.327L12.1461 134.377L18.0458 131.374Z" fill="#A9A9A9"/> <path d="M6.62346 122.487C6.35183 121.671 6.30676 121.008 6.48827 120.498C6.66977 119.988 7.08312 119.625 7.72831 119.411C8.0509 119.303 8.35977 119.26 8.6549 119.281C8.94794 119.296 9.22197 119.381 9.477 119.535C9.7236 119.684 9.94908 119.908 10.1535 120.205C10.3557 120.496 10.5306 120.863 10.678 121.306L11.0065 122.293L13.777 121.37L13.9602 121.921L7.18568 124.176L6.62346 122.487ZM7.12631 122.383L7.48638 123.464L10.5321 122.451L10.2225 121.521C10.0772 121.084 9.90554 120.727 9.70748 120.449C9.50099 120.166 9.25757 119.984 8.97721 119.901C8.68843 119.815 8.34478 119.838 7.94628 119.97C7.44025 120.139 7.12181 120.417 6.99095 120.805C6.86009 121.193 6.90521 121.719 7.12631 122.383Z" fill="#A9A9A9"/> <path d="M7.25807 108.452L10.6109 109.786L10.7272 110.466L7.25076 109.062C7.22567 109.35 7.1605 109.622 7.05526 109.876C6.95001 110.131 6.78105 110.349 6.54836 110.531C6.31456 110.706 6.00051 110.828 5.60623 110.895C4.93596 111.01 4.3989 110.875 3.99506 110.491C3.59121 110.107 3.31794 109.498 3.17525 108.663L2.87357 106.899L9.91143 105.695L10.0092 106.267L6.97324 106.786L7.25807 108.452ZM3.6729 108.547C3.74705 108.981 3.86254 109.34 4.01937 109.624C4.1685 109.903 4.36826 110.103 4.61865 110.222C4.86135 110.336 5.16012 110.363 5.51497 110.302C6.02096 110.216 6.37184 109.993 6.56762 109.635C6.7634 109.277 6.8096 108.796 6.70623 108.191L6.48039 106.87L3.47402 107.384L3.6729 108.547Z" fill="#A9A9A9"/> <path d="M2.32395 93.5193C2.33074 93.9593 2.41352 94.3547 2.57229 94.7056C2.72429 95.05 2.94213 95.34 3.2258 95.5757C3.50281 95.8114 3.8356 95.9896 4.22418 96.1103C4.60609 96.2311 5.03035 96.2879 5.49696 96.2807C6.13688 96.2708 6.69527 96.1622 7.17213 95.9548C7.64232 95.7475 8.00431 95.4419 8.2581 95.0379C8.51179 94.6273 8.634 94.122 8.62474 93.5221C8.61939 93.1754 8.58778 92.8559 8.52993 92.5634C8.47207 92.2709 8.40125 92.002 8.31745 91.7566L8.81739 91.7489C8.91441 91.9874 8.99191 92.2562 9.04987 92.5554C9.10772 92.8479 9.13969 93.1907 9.14576 93.584C9.15677 94.2973 9.01272 94.8996 8.71361 95.3909C8.41439 95.8756 7.99005 96.2455 7.44059 96.5007C6.89103 96.7492 6.24629 96.8792 5.50638 96.8906C4.97977 96.8987 4.49198 96.8296 4.043 96.6832C3.59402 96.5368 3.20395 96.3194 2.87279 96.0312C2.54164 95.7429 2.28283 95.3902 2.09636 94.973C1.9098 94.5492 1.8123 94.064 1.80386 93.5174C1.79861 93.1774 1.82689 92.8503 1.88871 92.5359C1.95043 92.215 2.04251 91.9168 2.16494 91.6416L2.67843 91.8637C2.55569 92.1189 2.46648 92.387 2.41081 92.6679C2.34837 92.9422 2.31942 93.226 2.32395 93.5193Z" fill="#A9A9A9"/> <path d="M10.257 78.9546L7.68698 79.5455L7.26514 82.4854L9.56385 83.7851L9.48005 84.3691L2.79175 80.5706L2.86561 80.0559L10.3422 78.3606L10.257 78.9546ZM4.45649 80.2337C4.38766 80.244 4.29431 80.2609 4.17644 80.2844C4.05858 80.3079 3.93411 80.3305 3.80305 80.3521C3.67198 80.3737 3.55412 80.3972 3.44945 80.4225C3.5569 80.4716 3.66718 80.5245 3.78028 80.5811C3.89433 80.6312 4.0013 80.6836 4.10121 80.7383C4.20206 80.7865 4.29301 80.8332 4.37406 80.8785L6.77882 82.2136L7.14668 79.6498L4.45649 80.2337Z" fill="#A9A9A9"/> <path d="M11.4897 61.094C12.0015 61.2665 12.4519 61.4851 12.841 61.75C13.2238 62.0127 13.5285 62.3194 13.755 62.6701C13.9836 63.0145 14.1214 63.3987 14.1685 63.8226C14.2177 64.2402 14.1592 64.6954 13.9931 65.1881C13.7759 65.8325 13.4528 66.3216 13.0237 66.6553C12.5967 66.9827 12.0933 67.1718 11.5133 67.2226C10.9292 67.2649 10.296 67.1816 9.61363 66.9727L8.99075 68.8205L12.2884 69.9321L12.1032 70.4817L5.33723 68.201L5.52249 67.6514L8.50747 68.6576L9.13355 66.8003C8.52509 66.56 8.02861 66.2484 7.6441 65.8656C7.25959 65.4827 7.00917 65.0359 6.89283 64.5254C6.7765 64.0148 6.82161 63.4531 7.02818 62.8403C7.24539 62.1959 7.5717 61.7079 8.00711 61.3763C8.44464 61.0384 8.96179 60.8504 9.55853 60.8123C10.1511 60.7659 10.7948 60.8597 11.4897 61.094ZM9.64739 66.3403C10.2539 66.5448 10.8154 66.6426 11.3319 66.6338C11.8484 66.625 12.2948 66.4905 12.6709 66.2304C13.0471 65.9702 13.3256 65.5717 13.5066 65.0347C13.6919 64.4851 13.7168 63.9939 13.5812 63.5613C13.4456 63.1287 13.1812 62.7546 12.7881 62.4392C12.3949 62.1237 11.8982 61.8649 11.2981 61.6625C10.7043 61.4624 10.1554 61.3688 9.65148 61.3819C9.14971 61.3886 8.71707 61.5242 8.35357 61.7886C7.98375 62.0509 7.7062 62.4568 7.52093 63.0064C7.34205 63.5371 7.31302 64.0198 7.43383 64.4545C7.55676 64.8828 7.81059 65.2568 8.19531 65.5765C8.57585 65.8877 9.05987 66.1423 9.64739 66.3403Z" fill="#A9A9A9"/> <path d="M22.8204 46.0666L24.8221 47.259L24.5355 47.7401L22.9805 46.8138L18.7275 53.953L12.5935 50.2989L12.8903 49.8006L18.5776 53.1886L20.1898 50.4824L14.5024 47.0944L14.7993 46.5961L20.4866 49.9841L22.1039 47.2693L16.4165 43.8813L16.7134 43.383L22.4007 46.7711L22.8204 46.0666Z" fill="#A9A9A9"/> <path d="M23.4737 34.383L23.8342 33.981L27.4528 37.2252C27.5422 37.3053 27.6365 37.3898 27.7358 37.4788C27.835 37.5678 27.9296 37.6571 28.0195 37.7466C28.1138 37.8312 28.1984 37.9115 28.2734 37.9877C28.3484 38.0639 28.4159 38.1334 28.476 38.1962L28.496 38.1738L26.5977 30.8984L27.0049 30.4442L32.3212 35.2104L31.9541 35.6199L28.395 32.4291C28.2908 32.3356 28.184 32.24 28.0748 32.1421C27.9701 32.0392 27.8703 31.9408 27.7755 31.8468C27.6806 31.7528 27.591 31.668 27.5066 31.5924C27.4267 31.5118 27.3592 31.4423 27.3041 31.3839L27.284 31.4062L29.1972 38.695L28.79 39.1492L23.4737 34.383Z" fill="#A9A9A9"/> <path d="M41.8546 26.634L41.3429 27.0509L37.646 25.806L38.1021 29.6909L37.6136 30.0888L37.1312 25.6966L33.267 24.4204L33.7709 24.0099L37.1436 25.1576L36.7171 21.6099L37.2055 21.212L37.6599 25.253L41.8546 26.634Z" fill="#A9A9A9"/> <path d="M61.6417 15.2265L60.9748 15.5233L56.3244 13.609L57.8047 16.9344L57.2748 17.1703L54.3712 10.6473L54.9011 10.4115L56.3082 13.5725L57.9799 9.04103L58.6285 8.7523L56.9609 13.2929L61.6417 15.2265Z" fill="#A9A9A9"/> <path d="M74.3572 7.52262C74.4942 8.05185 74.5508 8.55021 74.5272 9.01771C74.5101 9.48353 74.4141 9.9112 74.2395 10.3007C74.0632 10.6838 73.8007 11.0134 73.4521 11.2895C73.1083 11.5576 72.6783 11.7584 72.1619 11.892C71.6392 12.0273 71.1616 12.0579 70.7293 11.9839C70.2969 11.9099 69.9108 11.7481 69.5707 11.4987C69.2307 11.2493 68.9402 10.925 68.6992 10.526C68.4566 10.1206 68.2668 9.65322 68.1298 9.12399C67.9477 8.4205 67.9044 7.77408 67.9998 7.18471C68.1016 6.59368 68.3464 6.08959 68.7343 5.67244C69.1269 5.24717 69.6685 4.94516 70.3591 4.76644C71.0239 4.59439 71.6197 4.59512 72.1467 4.76863C72.6784 4.93401 73.1322 5.25041 73.5079 5.71784C73.8837 6.18527 74.1668 6.78686 74.3572 7.52262ZM68.7203 8.97115C68.8807 9.59074 69.1105 10.1063 69.4098 10.5177C69.7091 10.9292 70.0794 11.2156 70.5205 11.3768C70.9617 11.5381 71.4694 11.5444 72.0438 11.3958C72.6247 11.2454 73.0665 10.9968 73.3692 10.6499C73.6768 10.2949 73.8583 9.86568 73.914 9.36234C73.9761 8.85734 73.927 8.29504 73.7667 7.67545C73.5178 6.71381 73.1143 6.01943 72.5561 5.59231C72.0044 5.16353 71.3155 5.05604 70.4894 5.26985C69.9085 5.42018 69.4603 5.67048 69.1446 6.02073C68.8354 6.36932 68.6466 6.79695 68.578 7.30363C68.5159 7.80863 68.5633 8.36447 68.7203 8.97115Z" fill="#A9A9A9"/> <path d="M86.5362 9.36606L83.4949 3.04179L83.465 3.04399C83.4871 3.16269 83.5037 3.2985 83.515 3.45142C83.5324 3.59721 83.5472 3.75321 83.5594 3.91943C83.5777 4.07851 83.5933 4.24449 83.6059 4.41735L83.9831 9.55353L83.4445 9.59307L82.9217 2.47224L83.7893 2.40853L86.7011 8.47158L86.741 8.46866L88.7659 2.04312L89.6137 1.98088L90.1365 9.10171L89.568 9.14345L89.1865 3.94744C89.1758 3.80117 89.1648 3.65157 89.1536 3.49865C89.149 3.34524 89.1447 3.19515 89.1406 3.04839C89.1365 2.90163 89.1331 2.76484 89.1305 2.63803L89.1006 2.64022L87.0049 9.33165L86.5362 9.36606Z" fill="#A9A9A9"/> <path d="M100.081 9.30606L100.877 2.21062L106.015 2.78735L105.218 9.88279L104.652 9.8192L105.39 3.24052L101.395 2.79208L100.657 9.37076L100.081 9.30606Z" fill="#A9A9A9"/> <path d="M121.336 9.98755C121.181 10.5118 120.973 10.9683 120.712 11.3569C120.457 11.7475 120.155 12.0648 119.805 12.3089C119.457 12.5466 119.062 12.6941 118.621 12.7515C118.188 12.8043 117.716 12.7552 117.205 12.604C116.687 12.4509 116.262 12.2314 115.929 11.9454C115.596 11.6594 115.349 11.322 115.185 10.9332C115.022 10.5443 114.94 10.1168 114.939 9.65068C114.939 9.17815 115.017 8.67975 115.172 8.1555C115.378 7.45864 115.674 6.88209 116.059 6.42586C116.45 5.97153 116.92 5.66534 117.467 5.50729C118.022 5.34474 118.642 5.36456 119.326 5.56674C119.985 5.76136 120.495 6.06866 120.858 6.48862C121.229 6.90408 121.455 7.40889 121.536 8.00306C121.618 8.59722 121.551 9.25872 121.336 9.98755ZM115.757 8.3284C115.576 8.94215 115.507 9.50245 115.552 10.0093C115.597 10.5161 115.767 10.9522 116.062 11.3175C116.358 11.6828 116.79 11.9496 117.359 12.1177C117.934 12.2878 118.441 12.302 118.879 12.1604C119.325 12.0142 119.702 11.7397 120.009 11.3368C120.322 10.9358 120.569 10.4284 120.751 9.81466C121.032 8.86206 121.044 8.05903 120.785 7.40557C120.533 6.75399 119.997 6.30728 119.179 6.06542C118.603 5.89536 118.09 5.87926 117.639 6.01711C117.195 6.15686 116.813 6.42629 116.493 6.82542C116.18 7.22644 115.935 7.72743 115.757 8.3284Z" fill="#A9A9A9"/> <path d="M134.426 13.5189C134.21 13.9626 133.915 14.2492 133.541 14.3787C133.176 14.5051 132.776 14.5112 132.342 14.3968L132.329 14.4238C132.762 14.7379 133.042 15.0851 133.169 15.4653C133.295 15.8455 133.251 16.2575 133.035 16.7012C132.852 17.079 132.601 17.3651 132.284 17.5595C131.971 17.7479 131.599 17.8342 131.169 17.8182C130.746 17.8051 130.273 17.6718 129.752 17.4184C129.398 17.2465 129.076 17.0533 128.788 16.839C128.508 16.6215 128.276 16.3901 128.091 16.1447L128.332 15.65C128.456 15.8215 128.604 15.9898 128.776 16.1548C128.956 16.3168 129.146 16.4682 129.344 16.609C129.549 16.7528 129.756 16.8757 129.966 16.9776C130.559 17.2661 131.073 17.3601 131.507 17.2597C131.948 17.1623 132.277 16.8887 132.495 16.439C132.72 15.9773 132.712 15.5584 132.472 15.1825C132.241 14.8035 131.802 14.4567 131.154 14.142L130.21 13.6832L130.424 13.2424L131.386 13.71C131.8 13.911 132.167 14.0261 132.486 14.0553C132.814 14.0814 133.094 14.032 133.325 13.9071C133.559 13.7762 133.743 13.5729 133.877 13.297C134.061 12.9193 134.072 12.5614 133.91 12.2233C133.751 11.8792 133.45 11.5994 133.006 11.3838C132.61 11.1915 132.25 11.0868 131.924 11.0696C131.602 11.0465 131.27 11.0592 130.928 11.1078L130.841 10.6213C131.079 10.5739 131.324 10.5517 131.574 10.5548C131.828 10.5519 132.092 10.5802 132.367 10.6397C132.648 10.7021 132.935 10.8047 133.229 10.9475C133.649 11.1514 133.972 11.3937 134.199 11.6744C134.429 11.949 134.563 12.2442 134.602 12.5598C134.642 12.8754 134.583 13.1951 134.426 13.5189Z" fill="#A9A9A9"/> <path d="M143.756 16.9984L144.198 17.3096L141.396 21.2812C141.327 21.3793 141.254 21.4828 141.177 21.5917C141.101 21.7007 141.023 21.805 140.944 21.9047C140.871 22.0082 140.802 22.1016 140.735 22.1849C140.668 22.2682 140.606 22.3434 140.551 22.4104L140.576 22.4277L147.581 19.6958L148.079 20.0474L143.964 25.8821L143.515 25.5651L146.27 21.659C146.35 21.5445 146.433 21.4274 146.517 21.3076C146.607 21.1915 146.694 21.081 146.776 20.9759C146.858 20.8708 146.932 20.7719 146.997 20.6793C147.068 20.5905 147.129 20.5153 147.181 20.4538L147.156 20.4365L140.14 23.1847L139.641 22.8331L143.756 16.9984Z" fill="#A9A9A9"/> <path d="M155.974 36.0173L154.32 37.6589L153.933 37.2685L155.217 35.9933L151.413 32.1611L156.48 27.1308L156.888 27.5424L152.19 32.2064L155.022 35.0592L159.72 30.3952L160.122 30.7998L155.424 35.4638L155.974 36.0173Z" fill="#A9A9A9"/> <path d="M166.852 38.8319L167.161 39.2743L163.179 42.0609C163.081 42.1297 162.977 42.2023 162.868 42.2788C162.759 42.3552 162.65 42.427 162.543 42.4942C162.439 42.5668 162.342 42.631 162.25 42.6867C162.159 42.7424 162.076 42.7924 162.001 42.8366L162.018 42.8612L169.535 42.6662L169.885 43.1659L164.035 47.2598L163.72 46.8092L167.636 44.0685C167.751 43.9882 167.868 43.906 167.988 43.8219C168.112 43.7433 168.231 43.6685 168.344 43.5975C168.457 43.5265 168.56 43.4585 168.653 43.3936C168.749 43.334 168.832 43.2841 168.902 43.2437L168.884 43.2191L161.352 43.4255L161.002 42.9258L166.852 38.8319Z" fill="#A9A9A9"/> <path d="M178.962 55.3488C178.67 55.4634 178.402 55.5041 178.158 55.4709C177.917 55.4437 177.698 55.344 177.499 55.1717C177.307 54.9967 177.136 54.7491 176.986 54.4291C176.837 54.109 176.756 53.8191 176.745 53.5593C176.743 53.3028 176.807 53.0778 176.938 52.8844C177.077 52.6942 177.286 52.5192 177.564 52.3595L177.793 52.8487C177.481 53.0313 177.294 53.2292 177.232 53.4423C177.172 53.6615 177.219 53.9341 177.371 54.2602C177.515 54.5682 177.693 54.7757 177.905 54.8827C178.117 54.9896 178.392 54.9789 178.729 54.8506L178.962 55.3488ZM175.172 52.2967L175.401 52.7859L170.999 54.8446C170.89 54.8954 170.775 54.949 170.655 55.0055C170.534 55.062 170.415 55.114 170.297 55.1617C170.182 55.2153 170.075 55.2617 169.976 55.3009C169.876 55.34 169.786 55.3749 169.705 55.4056L169.717 55.4328L177.155 56.5361L177.413 57.0887L170.945 60.1131L170.712 59.6149L175.042 57.5901C175.169 57.5308 175.299 57.4701 175.432 57.408C175.568 57.3519 175.697 57.2987 175.821 57.2482C175.945 57.1978 176.058 57.1485 176.16 57.1005C176.266 57.0586 176.356 57.0237 176.431 56.9958L176.419 56.9686L168.963 55.8738L168.705 55.3212L175.172 52.2967Z" fill="#A9A9A9"/> <circle cx="179.505" cy="77.2927" r="1.26709" fill="#A9A9A9"/> </svg>