<?xml version="1.0" encoding="UTF-8"?>
<svg xmlns="http://www.w3.org/2000/svg" width="12" height="13" viewBox="0 0 12 13" fill="none"> <g clip-path="url(#clip0_268_1168)"> <path d="M3.52463 1.29188C2.7508 1.50514 1.98222 1.73704 1.21957 1.98738C1.14993 2.00993 1.08802 2.0516 1.04091 2.10762C0.993789 2.16364 0.963354 2.23177 0.953067 2.30425C0.502942 5.68181 1.54294 8.14613 2.78363 9.7695C3.30892 10.4637 3.93527 11.0753 4.64182 11.5838C4.92294 11.7821 5.17157 11.9251 5.36738 12.0169C5.46488 12.0632 5.5445 12.0941 5.60544 12.1127C5.63209 12.1221 5.65957 12.1289 5.6875 12.1331C5.71511 12.1286 5.74229 12.1218 5.76875 12.1127C5.8305 12.0941 5.91013 12.0632 6.00763 12.0169C6.20263 11.9251 6.45207 11.7812 6.73319 11.5838C7.43973 11.0752 8.06608 10.4637 8.59138 9.7695C9.83207 8.14694 10.8721 5.68181 10.4219 2.30425C10.4117 2.23174 10.3813 2.16357 10.3342 2.10753C10.2871 2.05149 10.2251 2.00985 10.1554 1.98738C9.6265 1.81431 8.73357 1.53237 7.85038 1.29269C6.9485 1.04812 6.11894 0.866938 5.6875 0.866938C5.25688 0.866938 4.4265 1.04812 3.52463 1.29269V1.29188ZM3.3085 0.455C4.19007 0.215313 5.12688 0 5.6875 0C6.24813 0 7.18494 0.215313 8.06651 0.455C8.96838 0.69875 9.87757 0.987187 10.4122 1.16187C10.6357 1.23569 10.8339 1.37107 10.9839 1.55244C11.134 1.73382 11.2298 1.95385 11.2604 2.18725C11.7447 5.82481 10.621 8.52069 9.25763 10.3041C8.67949 11.067 7.99012 11.7389 7.21257 12.2972C6.9437 12.4904 6.65884 12.6603 6.36107 12.805C6.13357 12.9123 5.889 13 5.6875 13C5.486 13 5.24225 12.9123 5.01394 12.805C4.71617 12.6603 4.4313 12.4904 4.16244 12.2972C3.3849 11.7389 2.69554 11.067 2.11738 10.3041C0.754004 8.52069 -0.369683 5.82481 0.114567 2.18725C0.145188 1.95385 0.241027 1.73382 0.391074 1.55244C0.541122 1.37107 0.739291 1.23569 0.962817 1.16187C1.73891 0.907407 2.52103 0.671714 3.3085 0.455V0.455Z" fill="white"/> <path d="M8.00591 4.18087C8.04374 4.21861 8.07376 4.26344 8.09424 4.3128C8.11472 4.36215 8.12526 4.41506 8.12526 4.4685C8.12526 4.52194 8.11472 4.57485 8.09424 4.6242C8.07376 4.67356 8.04374 4.71839 8.00591 4.75612L5.56841 7.19362C5.53067 7.23146 5.48584 7.26147 5.43649 7.28195C5.38713 7.30243 5.33422 7.31298 5.28079 7.31298C5.22735 7.31298 5.17444 7.30243 5.12508 7.28195C5.07573 7.26147 5.0309 7.23146 4.99316 7.19362L3.77441 5.97487C3.73664 5.9371 3.70668 5.89226 3.68624 5.84291C3.66579 5.79356 3.65527 5.74067 3.65527 5.68725C3.65527 5.63383 3.66579 5.58094 3.68624 5.53159C3.70668 5.48224 3.73664 5.4374 3.77441 5.39962C3.81218 5.36185 3.85702 5.33189 3.90638 5.31145C3.95573 5.29101 4.00862 5.28049 4.06204 5.28049C4.11545 5.28049 4.16835 5.29101 4.2177 5.31145C4.26705 5.33189 4.31189 5.36185 4.34966 5.39962L5.28079 6.33156L7.43066 4.18087C7.4684 4.14304 7.51323 4.11303 7.56258 4.09255C7.61194 4.07207 7.66485 4.06152 7.71829 4.06152C7.77172 4.06152 7.82463 4.07207 7.87399 4.09255C7.92334 4.11303 7.96817 4.14304 8.00591 4.18087V4.18087Z" fill="white"/> </g> <defs> <clipPath id="clip0_268_1168"> <rect width="12" height="13" fill="white"/> </clipPath> </defs> </svg>