<?xml version="1.0" encoding="UTF-8"?>
<svg xmlns="http://www.w3.org/2000/svg" width="20" height="20" viewBox="0 0 20 20" fill="none"> <path d="M3.4375 0.625C3.00485 0.625 2.58192 0.753295 2.22219 0.99366C1.86246 1.23403 1.58208 1.57567 1.41651 1.97538C1.25095 2.37509 1.20763 2.81493 1.29203 3.23926C1.37644 3.66359 1.58478 4.05337 1.8907 4.35929C2.19663 4.66522 2.58641 4.87356 3.01074 4.95797C3.43507 5.04237 3.87491 4.99905 4.27462 4.83348C4.67433 4.66792 5.01597 4.38754 5.25634 4.02781C5.49671 3.66808 5.625 3.24515 5.625 2.8125C5.62435 2.23254 5.39367 1.67652 4.98358 1.26642C4.57348 0.856328 4.01746 0.625651 3.4375 0.625V0.625ZM3.4375 3.75C3.25208 3.75 3.07082 3.69501 2.91665 3.592C2.76248 3.48899 2.64232 3.34257 2.57136 3.17126C2.50041 2.99996 2.48184 2.81146 2.51801 2.6296C2.55419 2.44774 2.64348 2.2807 2.77459 2.14959C2.9057 2.01847 3.07275 1.92919 3.2546 1.89301C3.43646 1.85684 3.62496 1.87541 3.79627 1.94636C3.96757 2.01732 4.11399 2.13748 4.217 2.29165C4.32002 2.44582 4.375 2.62708 4.375 2.8125C4.37471 3.06105 4.27585 3.29934 4.10009 3.47509C3.92434 3.65084 3.68605 3.74971 3.4375 3.75V3.75Z" fill="white"/> <path d="M7.8125 5.41669C7.37985 5.41669 6.95692 5.54498 6.59719 5.78535C6.23746 6.02571 5.95708 6.36735 5.79151 6.76707C5.62595 7.16678 5.58263 7.60661 5.66703 8.03095C5.75144 8.45528 5.95978 8.84506 6.26571 9.15098C6.57163 9.45691 6.96141 9.66525 7.38574 9.74965C7.81007 9.83406 8.24991 9.79074 8.64962 9.62517C9.04933 9.45961 9.39098 9.17923 9.63134 8.8195C9.87171 8.45976 10 8.03683 10 7.60419C9.99935 7.02423 9.76867 6.4682 9.35858 6.05811C8.94848 5.64802 8.39246 5.41734 7.8125 5.41669ZM7.8125 8.54169C7.62708 8.54169 7.44583 8.4867 7.29165 8.38369C7.13748 8.28068 7.01732 8.13426 6.94636 7.96295C6.87541 7.79165 6.85684 7.60315 6.89301 7.42129C6.92919 7.23943 7.01848 7.07239 7.14959 6.94127C7.2807 6.81016 7.44775 6.72087 7.6296 6.6847C7.81146 6.64853 7.99996 6.66709 8.17127 6.73805C8.34257 6.80901 8.48899 6.92917 8.592 7.08334C8.69502 7.23751 8.75 7.41877 8.75 7.60419C8.74971 7.85274 8.65085 8.09103 8.47509 8.26678C8.29934 8.44253 8.06105 8.5414 7.8125 8.54169V8.54169Z" fill="white"/> <path d="M3.4375 14.5833C3.87015 14.5833 4.29308 14.455 4.65281 14.2147C5.01254 13.9743 5.29292 13.6326 5.45849 13.2329C5.62405 12.8332 5.66737 12.3934 5.58297 11.9691C5.49856 11.5447 5.29022 11.1549 4.9843 10.849C4.67837 10.5431 4.28859 10.3348 3.86426 10.2503C3.43993 10.1659 3.00009 10.2093 2.60038 10.3748C2.20067 10.5404 1.85903 10.8208 1.61866 11.1805C1.37829 11.5402 1.25 11.9632 1.25 12.3958C1.25065 12.9758 1.48133 13.5318 1.89142 13.9419C2.30152 14.352 2.85754 14.5827 3.4375 14.5833ZM3.4375 11.4583C3.62292 11.4583 3.80418 11.5133 3.95835 11.6163C4.11252 11.7193 4.23268 11.8657 4.30364 12.037C4.37459 12.2084 4.39316 12.3969 4.35699 12.5787C4.32081 12.7606 4.23152 12.9276 4.10041 13.0587C3.9693 13.1898 3.80225 13.2791 3.6204 13.3153C3.43854 13.3515 3.25004 13.3329 3.07873 13.262C2.90743 13.191 2.76101 13.0708 2.658 12.9167C2.55498 12.7625 2.5 12.5812 2.5 12.3958C2.50029 12.1473 2.59915 11.909 2.77491 11.7332C2.95066 11.5575 3.18895 11.4586 3.4375 11.4583V11.4583Z" fill="white"/> <path d="M7.8125 19.375C8.24515 19.375 8.66808 19.2467 9.02781 19.0063C9.38754 18.766 9.66792 18.4243 9.83349 18.0246C9.99905 17.6249 10.0424 17.1851 9.95797 16.7607C9.87356 16.3364 9.66522 15.9466 9.3593 15.6407C9.05337 15.3348 8.66359 15.1264 8.23926 15.042C7.81493 14.9576 7.37509 15.0009 6.97538 15.1665C6.57567 15.3321 6.23403 15.6125 5.99366 15.9722C5.75329 16.3319 5.625 16.7549 5.625 17.1875C5.62565 17.7675 5.85633 18.3235 6.26642 18.7336C6.67652 19.1437 7.23254 19.3743 7.8125 19.375ZM7.8125 16.25C7.99792 16.25 8.17918 16.305 8.33335 16.408C8.48752 16.511 8.60768 16.6574 8.67864 16.8287C8.74959 17 8.76816 17.1885 8.73199 17.3704C8.69581 17.5523 8.60652 17.7193 8.47541 17.8504C8.3443 17.9815 8.17725 18.0708 7.9954 18.107C7.81354 18.1432 7.62504 18.1246 7.45373 18.0536C7.28243 17.9827 7.13601 17.8625 7.033 17.7083C6.92998 17.5542 6.875 17.3729 6.875 17.1875C6.87529 16.9389 6.97415 16.7007 7.14991 16.5249C7.32566 16.3492 7.56395 16.2503 7.8125 16.25V16.25Z" fill="white"/> <path d="M12.1875 0.625C11.7549 0.625 11.3319 0.753295 10.9722 0.99366C10.6125 1.23403 10.3321 1.57567 10.1665 1.97538C10.0009 2.37509 9.95763 2.81493 10.042 3.23926C10.1264 3.66359 10.3348 4.05337 10.6407 4.35929C10.9466 4.66522 11.3364 4.87356 11.7607 4.95797C12.1851 5.04237 12.6249 4.99905 13.0246 4.83348C13.4243 4.66792 13.766 4.38754 14.0063 4.02781C14.2467 3.66808 14.375 3.24515 14.375 2.8125C14.3743 2.23254 14.1437 1.67652 13.7336 1.26642C13.3235 0.856328 12.7675 0.625651 12.1875 0.625V0.625ZM12.1875 3.75C12.0021 3.75 11.8208 3.69501 11.6667 3.592C11.5125 3.48899 11.3923 3.34257 11.3214 3.17126C11.2504 2.99996 11.2318 2.81146 11.268 2.6296C11.3042 2.44774 11.3935 2.2807 11.5246 2.14959C11.6557 2.01847 11.8227 1.92919 12.0046 1.89301C12.1865 1.85684 12.375 1.87541 12.5463 1.94636C12.7176 2.01732 12.864 2.13748 12.967 2.29165C13.07 2.44582 13.125 2.62708 13.125 2.8125C13.1247 3.06105 13.0258 3.29934 12.8501 3.47509C12.6743 3.65084 12.4361 3.74971 12.1875 3.75V3.75Z" fill="white"/> <path d="M16.5625 5.41669C16.1299 5.41669 15.7069 5.54498 15.3472 5.78535C14.9875 6.02571 14.7071 6.36735 14.5415 6.76707C14.3759 7.16678 14.3326 7.60661 14.417 8.03095C14.5014 8.45528 14.7098 8.84506 15.0157 9.15098C15.3216 9.45691 15.7114 9.66525 16.1357 9.74965C16.5601 9.83406 16.9999 9.79074 17.3996 9.62517C17.7993 9.45961 18.141 9.17923 18.3813 8.8195C18.6217 8.45976 18.75 8.03683 18.75 7.60419C18.7493 7.02423 18.5187 6.4682 18.1086 6.05811C17.6985 5.64802 17.1425 5.41734 16.5625 5.41669ZM16.5625 8.54169C16.3771 8.54169 16.1958 8.4867 16.0417 8.38369C15.8875 8.28068 15.7673 8.13426 15.6964 7.96295C15.6254 7.79165 15.6068 7.60315 15.643 7.42129C15.6792 7.23943 15.7685 7.07239 15.8996 6.94127C16.0307 6.81016 16.1977 6.72087 16.3796 6.6847C16.5615 6.64853 16.75 6.66709 16.9213 6.73805C17.0926 6.80901 17.239 6.92917 17.342 7.08334C17.445 7.23751 17.5 7.41877 17.5 7.60419C17.4997 7.85274 17.4008 8.09103 17.2251 8.26678C17.0493 8.44253 16.8111 8.5414 16.5625 8.54169V8.54169Z" fill="white"/> <path d="M12.1875 14.5833C12.6201 14.5833 13.0431 14.455 13.4028 14.2147C13.7625 13.9743 14.0429 13.6326 14.2085 13.2329C14.3741 12.8332 14.4174 12.3934 14.333 11.9691C14.2486 11.5447 14.0402 11.1549 13.7343 10.849C13.4284 10.5431 13.0386 10.3348 12.6143 10.2503C12.1899 10.1659 11.7501 10.2093 11.3504 10.3748C10.9507 10.5404 10.609 10.8208 10.3687 11.1805C10.1283 11.5402 10 11.9632 10 12.3958C10.0007 12.9758 10.2313 13.5318 10.6414 13.9419C11.0515 14.352 11.6075 14.5827 12.1875 14.5833V14.5833ZM12.1875 11.4583C12.3729 11.4583 12.5542 11.5133 12.7083 11.6163C12.8625 11.7193 12.9827 11.8657 13.0536 12.037C13.1246 12.2084 13.1432 12.3969 13.107 12.5787C13.0708 12.7606 12.9815 12.9276 12.8504 13.0587C12.7193 13.1898 12.5523 13.2791 12.3704 13.3153C12.1885 13.3515 12 13.3329 11.8287 13.262C11.6574 13.191 11.511 13.0708 11.408 12.9167C11.305 12.7625 11.25 12.5812 11.25 12.3958C11.2503 12.1473 11.3492 11.909 11.5249 11.7332C11.7007 11.5575 11.9389 11.4586 12.1875 11.4583V11.4583Z" fill="white"/> <path d="M16.5625 15C16.1299 15 15.7069 15.1283 15.3472 15.3687C14.9875 15.609 14.7071 15.9507 14.5415 16.3504C14.3759 16.7501 14.3326 17.1899 14.417 17.6143C14.5014 18.0386 14.7098 18.4284 15.0157 18.7343C15.3216 19.0402 15.7114 19.2486 16.1357 19.333C16.5601 19.4174 16.9999 19.374 17.3996 19.2085C17.7993 19.0429 18.141 18.7625 18.3813 18.4028C18.6217 18.0431 18.75 17.6201 18.75 17.1875C18.7493 16.6075 18.5187 16.0515 18.1086 15.6414C17.6985 15.2313 17.1425 15.0007 16.5625 15V15ZM16.5625 18.125C16.3771 18.125 16.1958 18.07 16.0417 17.967C15.8875 17.864 15.7673 17.7176 15.6964 17.5463C15.6254 17.375 15.6068 17.1865 15.643 17.0046C15.6792 16.8227 15.7685 16.6557 15.8996 16.5246C16.0307 16.3935 16.1977 16.3042 16.3796 16.268C16.5615 16.2318 16.75 16.2504 16.9213 16.3214C17.0926 16.3923 17.239 16.5125 17.342 16.6667C17.445 16.8208 17.5 17.0021 17.5 17.1875C17.4997 17.436 17.4008 17.6743 17.2251 17.8501C17.0493 18.0258 16.8111 18.1247 16.5625 18.125V18.125Z" fill="white"/> </svg>