<?xml version="1.0" encoding="UTF-8"?>
<svg xmlns="http://www.w3.org/2000/svg" width="33" height="33" viewBox="0 0 33 33" fill="none"> <path d="M16.5003 3.29999C16.7191 3.29999 16.929 3.38691 17.0837 3.54162C17.2384 3.69634 17.3253 3.90618 17.3253 4.12499V5.77499C17.3253 5.99379 17.2384 6.20363 17.0837 6.35835C16.929 6.51307 16.7191 6.59999 16.5003 6.59999C16.2815 6.59999 16.0717 6.51307 15.9169 6.35835C15.7622 6.20363 15.6753 5.99379 15.6753 5.77499V4.12499C15.6753 3.90618 15.7622 3.69634 15.9169 3.54162C16.0717 3.38691 16.2815 3.29999 16.5003 3.29999V3.29999ZM16.5003 23.1C18.2507 23.1 19.9295 22.4046 21.1672 21.1669C22.405 19.9292 23.1003 18.2504 23.1003 16.5C23.1003 14.7496 22.405 13.0708 21.1672 11.8331C19.9295 10.5953 18.2507 9.89999 16.5003 9.89999C14.7499 9.89999 13.0711 10.5953 11.8334 11.8331C10.5957 13.0708 9.90031 14.7496 9.90031 16.5C9.90031 18.2504 10.5957 19.9292 11.8334 21.1669C13.0711 22.4046 14.7499 23.1 16.5003 23.1V23.1ZM16.5003 21.45C15.1875 21.45 13.9284 20.9285 13.0001 20.0002C12.0718 19.0719 11.5503 17.8128 11.5503 16.5C11.5503 15.1872 12.0718 13.9281 13.0001 12.9998C13.9284 12.0715 15.1875 11.55 16.5003 11.55C17.8131 11.55 19.0722 12.0715 20.0005 12.9998C20.9288 13.9281 21.4503 15.1872 21.4503 16.5C21.4503 17.8128 20.9288 19.0719 20.0005 20.0002C19.0722 20.9285 17.8131 21.45 16.5003 21.45ZM28.8753 17.325C29.0941 17.325 29.304 17.2381 29.4587 17.0834C29.6134 16.9286 29.7003 16.7188 29.7003 16.5C29.7003 16.2812 29.6134 16.0713 29.4587 15.9166C29.304 15.7619 29.0941 15.675 28.8753 15.675H27.2253C27.0065 15.675 26.7967 15.7619 26.6419 15.9166C26.4872 16.0713 26.4003 16.2812 26.4003 16.5C26.4003 16.7188 26.4872 16.9286 26.6419 17.0834C26.7967 17.2381 27.0065 17.325 27.2253 17.325H28.8753ZM16.5003 26.4C16.7191 26.4 16.929 26.4869 17.0837 26.6416C17.2384 26.7963 17.3253 27.0062 17.3253 27.225V28.875C17.3253 29.0938 17.2384 29.3036 17.0837 29.4584C16.929 29.6131 16.7191 29.7 16.5003 29.7C16.2815 29.7 16.0717 29.6131 15.9169 29.4584C15.7622 29.3036 15.6753 29.0938 15.6753 28.875V27.225C15.6753 27.0062 15.7622 26.7963 15.9169 26.6416C16.0717 26.4869 16.2815 26.4 16.5003 26.4V26.4ZM5.77531 17.325C5.99411 17.325 6.20395 17.2381 6.35867 17.0834C6.51339 16.9286 6.60031 16.7188 6.60031 16.5C6.60031 16.2812 6.51339 16.0713 6.35867 15.9166C6.20395 15.7619 5.99411 15.675 5.77531 15.675H4.06426C3.84545 15.675 3.63561 15.7619 3.48089 15.9166C3.32618 16.0713 3.23926 16.2812 3.23926 16.5C3.23926 16.7188 3.32618 16.9286 3.48089 17.0834C3.63561 17.2381 3.84545 17.325 4.06426 17.325H5.77531ZM6.84121 6.84089C6.91784 6.76406 7.00888 6.7031 7.10911 6.66151C7.20934 6.61992 7.31679 6.59851 7.42531 6.59851C7.53382 6.59851 7.64127 6.61992 7.7415 6.66151C7.84173 6.7031 7.93277 6.76406 8.00941 6.84089L9.65941 8.49089C9.81432 8.6458 9.90135 8.85591 9.90135 9.07499C9.90135 9.29407 9.81432 9.50418 9.65941 9.65909C9.50449 9.814 9.29439 9.90103 9.07531 9.90103C8.85623 9.90103 8.64612 9.814 8.49121 9.65909L6.84121 8.00909C6.76438 7.93245 6.70342 7.84141 6.66183 7.74118C6.62024 7.64095 6.59883 7.5335 6.59883 7.42499C6.59883 7.31647 6.62024 7.20902 6.66183 7.10879C6.70342 7.00856 6.76438 6.91752 6.84121 6.84089ZM8.00941 26.1591C7.85449 26.314 7.64439 26.401 7.42531 26.401C7.20623 26.401 6.99612 26.314 6.84121 26.1591C6.68629 26.0042 6.59927 25.7941 6.59927 25.575C6.59927 25.3559 6.68629 25.1458 6.84121 24.9909L8.49121 23.3409C8.64612 23.186 8.85623 23.0989 9.07531 23.0989C9.29439 23.0989 9.50449 23.186 9.65941 23.3409C9.81432 23.4958 9.90135 23.7059 9.90135 23.925C9.90135 24.1441 9.81432 24.3542 9.65941 24.5091L8.00941 26.1591ZM26.1594 6.84089C26.0828 6.76406 25.9917 6.7031 25.8915 6.66151C25.7913 6.61992 25.6838 6.59851 25.5753 6.59851C25.4668 6.59851 25.3593 6.61992 25.2591 6.66151C25.1589 6.7031 25.0678 6.76406 24.9912 6.84089L23.3412 8.49089C23.1863 8.6458 23.0993 8.85591 23.0993 9.07499C23.0993 9.29407 23.1863 9.50418 23.3412 9.65909C23.4961 9.814 23.7062 9.90103 23.9253 9.90103C24.1444 9.90103 24.3545 9.814 24.5094 9.65909L26.1594 8.00909C26.2362 7.93245 26.2972 7.84141 26.3388 7.74118C26.3804 7.64095 26.4018 7.5335 26.4018 7.42499C26.4018 7.31647 26.3804 7.20902 26.3388 7.10879C26.2972 7.00856 26.2362 6.91752 26.1594 6.84089ZM24.9912 26.1591C25.1461 26.314 25.3562 26.401 25.5753 26.401C25.7944 26.401 26.0045 26.314 26.1594 26.1591C26.3143 26.0042 26.4013 25.7941 26.4013 25.575C26.4013 25.3559 26.3143 25.1458 26.1594 24.9909L24.5094 23.3409C24.3545 23.186 24.1444 23.0989 23.9253 23.0989C23.7062 23.0989 23.4961 23.186 23.3412 23.3409C23.1863 23.4958 23.0993 23.7059 23.0993 23.925C23.0993 24.1441 23.1863 24.3542 23.3412 24.5091L24.9912 26.1591Z" fill="white"/> </svg>